<?xml version="1.0" encoding="UTF-8"?>
<svg id="Layer_2" data-name="Layer 2" xmlns="http://www.w3.org/2000/svg" viewBox="0 0 204.38 63.28">
  <defs>
    <style>
      <!-- .cls-1 {
        stroke-width: 700px;
        stroke: black;
      } -->
    </style>
  </defs>
  <g id="Layer_1-2" data-name="Layer 1">
    <g>
      <path class="cls-1" d="m33.68,49.08L0,35.23v-7.1l33.68-13.85v7.73L7.66,31.36v.63l26.02,9.35v7.73Z" fill="currentColor"/>
      <path class="cls-1" d="m58.99,57.3c-5.48,0-9.72-1.53-12.69-4.59-2.98-3.06-4.46-7.34-4.46-12.85h7.03c0,3.52.9,6.25,2.69,8.19s4.33,2.92,7.61,2.92,5.64-.97,7.37-2.9,2.58-4.67,2.58-8.21V6.68h7.03v33.19c0,5.53-1.51,9.82-4.54,12.87s-7.23,4.57-12.62,4.57Zm-2.95-43.95v-6.68h16.38v6.68h-16.38Z" fill="currentColor"/>
      <path class="cls-1" d="m107.3,57.3c-15.52,0-23.27-8.58-23.27-25.73,0-8.13,1.96-14.43,5.87-18.9s9.43-6.7,16.56-6.7c3.45,0,6.45.54,9,1.63s4.42,2.64,5.59,4.66l-5.2,5.17c-1.05-1.59-2.4-2.82-4.03-3.69s-3.39-1.3-5.29-1.3c-4.52,0-8.15,1.63-10.88,4.89s-4.1,7.89-4.1,13.89c0,13.08,5.65,19.62,16.95,19.62,3.4,0,6.75-.7,10.05-2.11l1.62,6.19c-4.08,1.59-8.37,2.39-12.87,2.39Z" fill="currentColor"/>
      <path class="cls-1" d="m127.2,63.28L155.46,0h7.45l-28.27,63.28h-7.45Z" fill="currentColor"/>
      <path class="cls-1" d="m170.7,49.08v-7.73l24.61-9.35v-.63l-24.61-9.35v-7.73l33.68,13.85v7.1l-33.68,13.85Z" fill="currentColor"/>
    </g>
  </g>
</svg>